<svg width="512" height="512" viewBox="0 0 512 512" fill="none" xmlns="http://www.w3.org/2000/svg">
<circle cx="256" cy="256" r="218.5" stroke="#01A7C2" stroke-width="15"/>
<path d="M184.43 250.422L198.883 108.625H344.586V142.023H229.547L220.953 219.562C234.885 211.359 250.706 207.258 268.414 207.258C294.326 207.258 314.898 215.852 330.133 233.039C345.367 250.096 352.984 273.208 352.984 302.375C352.984 331.672 345.042 354.784 329.156 371.711C313.401 388.508 291.331 396.906 262.945 396.906C237.815 396.906 217.307 389.94 201.422 376.008C185.536 362.076 176.487 342.805 174.273 318.195H208.453C210.667 334.471 216.461 346.776 225.836 355.109C235.211 363.312 247.581 367.414 262.945 367.414C279.742 367.414 292.893 361.685 302.398 350.227C312.034 338.768 316.852 322.948 316.852 302.766C316.852 283.755 311.643 268.521 301.227 257.062C290.94 245.474 277.203 239.68 260.016 239.68C244.26 239.68 231.891 243.13 222.906 250.031L213.336 257.844L184.43 250.422Z" fill="#01A7C2"/>
</svg>
